<svg id="Layer_1" data-name="Layer 1" xmlns="http://www.w3.org/2000/svg" xmlns:xlink="http://www.w3.org/1999/xlink" viewBox="0 0 340 120">
  <defs>
    <style>
      .cls-1 {
        fill: url(#linear-gradient);
      }

      .cls-2 {
        fill: url(#linear-gradient-2);
      }

      .cls-3 {
        fill: #00aeef;
      }

      .cls-4 {
        fill: #414042;
      }

      .cls-5 {
        fill: url(#linear-gradient-3);
      }

      .cls-6 {
        fill: url(#linear-gradient-4);
      }

      .cls-7 {
        fill: url(#linear-gradient-5);
      }

      .cls-8 {
        fill: url(#linear-gradient-6);
      }

      .cls-9 {
        fill: url(#linear-gradient-7);
      }

      .cls-10 {
        fill: url(#linear-gradient-8);
      }

      .cls-11 {
        fill: url(#linear-gradient-9);
      }

      .cls-12 {
        fill: url(#linear-gradient-10);
      }

      .cls-13 {
        fill: url(#linear-gradient-11);
      }

      .cls-14 {
        fill: url(#linear-gradient-12);
      }

      .cls-15 {
        fill: url(#linear-gradient-13);
      }

      .cls-16 {
        fill: url(#linear-gradient-14);
      }

      .cls-17 {
        fill: url(#linear-gradient-15);
      }

      .cls-18 {
        fill: url(#linear-gradient-16);
      }

      .cls-19 {
        fill: url(#linear-gradient-17);
      }

      .cls-20 {
        fill: url(#linear-gradient-18);
      }

      .cls-21 {
        fill: url(#linear-gradient-19);
      }

      .cls-22 {
        fill: url(#linear-gradient-20);
      }

      .cls-23 {
        fill: url(#linear-gradient-21);
      }

      .cls-24 {
        fill: url(#linear-gradient-22);
      }

      .cls-25 {
        fill: url(#linear-gradient-23);
      }

      .cls-26 {
        fill: url(#linear-gradient-24);
      }

      .cls-27 {
        fill: url(#linear-gradient-25);
      }

      .cls-28 {
        fill: url(#linear-gradient-26);
      }

      .cls-29 {
        fill: url(#linear-gradient-27);
      }

      .cls-30 {
        fill: url(#linear-gradient-28);
      }

      .cls-31 {
        fill: url(#linear-gradient-29);
      }

      .cls-32 {
        fill: url(#linear-gradient-30);
      }

      .cls-33 {
        fill: url(#linear-gradient-31);
      }

      .cls-34 {
        fill: url(#linear-gradient-32);
      }

      .cls-35 {
        fill: url(#linear-gradient-33);
      }

      .cls-36 {
        fill: url(#linear-gradient-34);
      }

      .cls-37 {
        fill: url(#linear-gradient-35);
      }

      .cls-38 {
        fill: url(#linear-gradient-36);
      }

      .cls-39 {
        fill: url(#linear-gradient-37);
      }

      .cls-40 {
        fill: url(#linear-gradient-38);
      }
    </style>
    <linearGradient id="linear-gradient" x1="5" y1="77.95" x2="125" y2="77.95" gradientUnits="userSpaceOnUse">
      <stop offset="0" stop-color="#1c75bc"/>
      <stop offset="0.17" stop-color="#1d6baa"/>
      <stop offset="0.73" stop-color="#1f4b71"/>
      <stop offset="1" stop-color="#203f5b"/>
    </linearGradient>
    <linearGradient id="linear-gradient-2" x1="43.87" y1="90.88" x2="122.95" y2="90.88" gradientUnits="userSpaceOnUse">
      <stop offset="0" stop-color="#58595b"/>
      <stop offset="0.03" stop-color="#5a5b5d"/>
      <stop offset="0.68" stop-color="#919396"/>
      <stop offset="1" stop-color="#a7a9ac"/>
    </linearGradient>
    <linearGradient id="linear-gradient-3" x1="81.8" y1="49.92" x2="52.14" y2="79.44" gradientUnits="userSpaceOnUse">
      <stop offset="0" stop-color="#165f98"/>
      <stop offset="0.63" stop-color="#1b456a"/>
      <stop offset="1" stop-color="#1d3954"/>
    </linearGradient>
    <linearGradient id="linear-gradient-4" x1="30.53" y1="49.66" x2="69.24" y2="85.17" xlink:href="#linear-gradient-3"/>
    <linearGradient id="linear-gradient-5" x1="79.56" y1="13.73" x2="79.85" y2="52.83" xlink:href="#linear-gradient"/>
    <linearGradient id="linear-gradient-6" x1="94.12" y1="21.47" x2="94.12" y2="64.15" xlink:href="#linear-gradient"/>
    <linearGradient id="linear-gradient-7" x1="89.8" y1="19.63" x2="89.71" y2="62.31" xlink:href="#linear-gradient"/>
    <linearGradient id="linear-gradient-8" x1="55.71" y1="2.02" x2="55.9" y2="55.16" xlink:href="#linear-gradient"/>
    <linearGradient id="linear-gradient-9" x1="45.55" y1="27.36" x2="45.94" y2="58.14" xlink:href="#linear-gradient"/>
    <linearGradient id="linear-gradient-10" x1="110.93" y1="42.8" x2="270.92" y2="140.06" gradientUnits="userSpaceOnUse">
      <stop offset="0" stop-color="#f1f2f2"/>
      <stop offset="0.28" stop-color="#e7e8e9"/>
      <stop offset="1" stop-color="#d1d3d4"/>
    </linearGradient>
    <linearGradient id="linear-gradient-11" x1="113" y1="39.39" x2="272.99" y2="136.65" xlink:href="#linear-gradient-10"/>
    <linearGradient id="linear-gradient-12" x1="115.97" y1="34.51" x2="275.96" y2="131.77" xlink:href="#linear-gradient-10"/>
    <linearGradient id="linear-gradient-13" x1="119.37" y1="28.92" x2="279.36" y2="126.18" xlink:href="#linear-gradient-10"/>
    <linearGradient id="linear-gradient-14" x1="121.86" y1="24.82" x2="281.85" y2="122.08" xlink:href="#linear-gradient-10"/>
    <linearGradient id="linear-gradient-15" x1="124.49" y1="20.49" x2="284.48" y2="117.75" xlink:href="#linear-gradient-10"/>
    <linearGradient id="linear-gradient-16" x1="126.64" y1="16.96" x2="286.63" y2="114.23" xlink:href="#linear-gradient-10"/>
    <linearGradient id="linear-gradient-17" x1="129.83" y1="11.72" x2="289.82" y2="108.98" xlink:href="#linear-gradient-10"/>
    <linearGradient id="linear-gradient-18" x1="133.31" y1="5.98" x2="293.3" y2="103.24" xlink:href="#linear-gradient-10"/>
    <linearGradient id="linear-gradient-19" x1="136.44" y1="0.84" x2="296.43" y2="98.1" xlink:href="#linear-gradient-10"/>
    <linearGradient id="linear-gradient-20" x1="140.31" y1="-5.53" x2="300.3" y2="91.73" xlink:href="#linear-gradient-10"/>
    <linearGradient id="linear-gradient-21" x1="142.48" y1="-9.09" x2="302.47" y2="88.17" xlink:href="#linear-gradient-10"/>
    <linearGradient id="linear-gradient-22" x1="145.14" y1="-13.48" x2="305.13" y2="83.79" xlink:href="#linear-gradient-10"/>
    <linearGradient id="linear-gradient-23" x1="148.41" y1="-18.85" x2="308.4" y2="78.41" xlink:href="#linear-gradient-10"/>
    <linearGradient id="linear-gradient-24" x1="151.02" y1="-23.14" x2="311.01" y2="74.12" xlink:href="#linear-gradient-10"/>
    <linearGradient id="linear-gradient-25" x1="153.46" y1="-27.16" x2="313.45" y2="70.11" xlink:href="#linear-gradient-10"/>
    <linearGradient id="linear-gradient-26" x1="156.1" y1="-31.5" x2="316.09" y2="65.77" xlink:href="#linear-gradient-10"/>
    <linearGradient id="linear-gradient-27" x1="158.76" y1="-35.88" x2="318.75" y2="61.38" xlink:href="#linear-gradient-10"/>
    <linearGradient id="linear-gradient-28" x1="162.63" y1="-42.25" x2="322.62" y2="55.01" xlink:href="#linear-gradient-10"/>
    <linearGradient id="linear-gradient-29" x1="121.47" y1="33.57" x2="281.46" y2="130.84" xlink:href="#linear-gradient-10"/>
    <linearGradient id="linear-gradient-30" x1="124.64" y1="28.37" x2="284.63" y2="125.63" xlink:href="#linear-gradient-10"/>
    <linearGradient id="linear-gradient-31" x1="127.25" y1="24.06" x2="287.24" y2="121.33" xlink:href="#linear-gradient-10"/>
    <linearGradient id="linear-gradient-32" x1="131.26" y1="17.47" x2="291.25" y2="114.73" xlink:href="#linear-gradient-10"/>
    <linearGradient id="linear-gradient-33" x1="134.43" y1="12.25" x2="294.42" y2="109.51" xlink:href="#linear-gradient-10"/>
    <linearGradient id="linear-gradient-34" x1="136.1" y1="9.51" x2="296.09" y2="106.77" xlink:href="#linear-gradient-10"/>
    <linearGradient id="linear-gradient-35" x1="138.74" y1="5.17" x2="298.73" y2="102.44" xlink:href="#linear-gradient-10"/>
    <linearGradient id="linear-gradient-36" x1="142.47" y1="-0.98" x2="302.46" y2="96.29" xlink:href="#linear-gradient-10"/>
    <linearGradient id="linear-gradient-37" x1="284.74" y1="75.12" x2="330" y2="75.12" xlink:href="#linear-gradient-10"/>
    <linearGradient id="linear-gradient-38" x1="175.44" y1="75.31" x2="130.18" y2="75.31" xlink:href="#linear-gradient-10"/>
  </defs>
  <g>
    <path class="cls-1" d="M29.5,44s-36.48,41,0,54.87c0,0,47,16.2,95.5-48.76,0,0-33.58,58.89-88.62,61.83a37.62,37.62,0,0,1-16.68-2.84C6.49,103.44-9.38,87.58,29.5,44Z"/>
    <path class="cls-2" d="M43.87,115.43S90,110.48,123,66.32C123,66.32,101.59,116.54,43.87,115.43Z"/>
    <polygon class="cls-3" points="96.45 74.01 102.46 74.01 80.97 55.57 60.99 74.01 66.87 74.01 66.8 71.11 81.05 60.27 96.6 70.69 96.45 74.01"/>
    <polygon class="cls-4" points="68.1 71.77 81.19 62.15 95.15 71.48 81.05 63.96 68.1 71.77"/>
    <polygon class="cls-5" points="60.99 65.81 71.06 57.09 80.97 55.57 60.68 74.28 56.82 71.45 60.99 65.81"/>
    <g>
      <path class="cls-4" d="M78.94,72.27h1.74a0,0,0,0,1,0,0v3.48a0,0,0,0,1,0,0H77.2a0,0,0,0,1,0,0V74A1.74,1.74,0,0,1,78.94,72.27Z"/>
      <path class="cls-4" d="M81.27,72.27h3.48a0,0,0,0,1,0,0v3.48a0,0,0,0,1,0,0H83A1.74,1.74,0,0,1,81.27,74V72.27A0,0,0,0,1,81.27,72.27Z" transform="translate(166.02 148.03) rotate(180)"/>
      <rect class="cls-4" x="77.2" y="76.21" width="3.48" height="3.48"/>
      <rect class="cls-4" x="81.27" y="76.21" width="3.48" height="3.48"/>
    </g>
    <polygon class="cls-6" points="33.59 57.74 61.8 66.13 49.94 79.69 33.59 57.74"/>
    <polygon class="cls-3" points="20.5 81.25 15.94 81.25 33.59 57.74 49.07 78.52 33.59 62.15 20.57 77.95 20.5 81.25"/>
    <polygon class="cls-4" points="21.8 78.36 33.59 64.32 47.12 78.36 33.59 65.81 21.8 78.36"/>
    <g>
      <path class="cls-4" d="M32,74h1.34a0,0,0,0,1,0,0v2.68a0,0,0,0,1,0,0H30.69a0,0,0,0,1,0,0V75.32A1.34,1.34,0,0,1,32,74Z"/>
      <path class="cls-4" d="M33.82,74H36.5a0,0,0,0,1,0,0v2.68a0,0,0,0,1,0,0H35.16a1.34,1.34,0,0,1-1.34-1.34V74A0,0,0,0,1,33.82,74Z" transform="translate(70.31 150.63) rotate(180)"/>
      <rect class="cls-4" x="30.69" y="77" width="2.68" height="2.68"/>
      <rect class="cls-4" x="33.82" y="77" width="2.68" height="2.68"/>
    </g>
    <g>
      <polygon class="cls-3" points="29.08 94.43 57.08 71.11 76.4 88.08 70.34 88.03 70.31 84.88 57.37 75.41 29.08 94.43"/>
      <polygon class="cls-4" points="32.18 93.66 57.31 76.83 68.64 85.24 57.35 78.53 32.18 93.66"/>
      <g>
        <path class="cls-4" d="M55.18,85.47h1.74a0,0,0,0,1,0,0V89a0,0,0,0,1,0,0H53.44a0,0,0,0,1,0,0V87.21A1.74,1.74,0,0,1,55.18,85.47Z"/>
        <path class="cls-4" d="M57.51,85.47H61a0,0,0,0,1,0,0V89a0,0,0,0,1,0,0H59.25a1.74,1.74,0,0,1-1.74-1.74V85.47A0,0,0,0,1,57.51,85.47Z" transform="translate(118.5 174.42) rotate(180)"/>
        <rect class="cls-4" x="53.44" y="89.4" width="3.48" height="3.48"/>
        <rect class="cls-4" x="57.51" y="89.4" width="3.48" height="3.48"/>
      </g>
    </g>
    <g>
      <polygon class="cls-7" points="84.11 12.18 84.11 56.41 81.73 54.05 75.32 54.97 75.32 19.51 84.11 12.18"/>
      <polygon class="cls-3" points="85.1 57.27 85.89 57.92 85.94 12.59 85.1 11.96 85.1 57.27"/>
      <polygon class="cls-3" points="86.65 58.05 87.44 58.69 87.49 13.36 86.65 12.73 86.65 58.05"/>
    </g>
    <g>
      <polygon class="cls-8" points="97.17 67.62 91.07 62.48 91.07 22.17 97.17 27.11 97.17 67.62"/>
      <polygon class="cls-9" points="89.36 61.09 90.15 61.66 90.2 22.13 89.36 21.58 89.36 61.09"/>
    </g>
    <g>
      <polygon class="cls-10" points="64.41 4.55 64.11 61.25 62.31 62.85 62.45 36.2 62.46 34.56 51.73 30.03 47.12 33.16 47.12 19.19 58.49 9.61 64.41 4.55"/>
      <polygon class="cls-3" points="66.13 59.28 65.22 59.98 65.22 4.78 66.19 5.28 66.13 59.28"/>
      <polygon class="cls-3" points="67.87 58.32 66.96 59 66.96 5.77 67.93 6.25 67.87 58.32"/>
      <polygon class="cls-3" points="69.61 56.99 68.7 57.64 68.7 6.74 69.67 7.19 69.61 56.99"/>
      <polygon class="cls-3" points="71.35 55.48 70.44 56.09 70.44 7.51 71.41 7.95 71.35 55.48"/>
    </g>
    <g>
      <polygon class="cls-11" points="52.08 61.57 39.79 58.17 39.79 38.53 51.75 31.58 52.08 61.57"/>
      <polygon class="cls-3" points="53.7 61.88 52.96 61.88 52.96 31.38 53.7 31.73 53.7 61.88"/>
      <polygon class="cls-3" points="55.25 62.37 54.51 62.37 54.51 32.15 55.25 32.51 55.25 62.37"/>
      <polygon class="cls-3" points="56.8 62.85 56.06 62.85 56.06 32.89 56.8 33.23 56.8 62.85"/>
      <polygon class="cls-3" points="58.34 63.54 57.61 63.54 57.61 33.66 58.34 34.01 58.34 63.54"/>
      <polygon class="cls-3" points="59.89 63.79 59.16 63.79 59.16 34.56 59.89 34.9 59.89 63.79"/>
      <polygon class="cls-3" points="61.45 63.57 60.62 63.97 60.62 35.57 61.45 35.57 61.45 63.57"/>
    </g>
  </g>
  <g>
    <g>
      <path class="cls-12" d="M138,59.5a3.19,3.19,0,0,1-1.2,2.63,5.21,5.21,0,0,1-3.34,1,7.89,7.89,0,0,1-3.49-.74V59.92a14.37,14.37,0,0,0,2.11.78,6.35,6.35,0,0,0,1.58.23A2.26,2.26,0,0,0,135,60.6a1.21,1.21,0,0,0,.26-1.62,2.5,2.5,0,0,0-.6-.55,15.86,15.86,0,0,0-1.59-.83,7.26,7.26,0,0,1-1.7-1,4,4,0,0,1-.9-1.14,3.29,3.29,0,0,1-.34-1.51,3.21,3.21,0,0,1,1.11-2.58,4.63,4.63,0,0,1,3.07-.93,7.28,7.28,0,0,1,1.83.23,11.7,11.7,0,0,1,1.82.64l-.84,2a13.07,13.07,0,0,0-1.63-.57,5.59,5.59,0,0,0-1.27-.16,1.71,1.71,0,0,0-1.14.35,1.14,1.14,0,0,0-.39.9,1.08,1.08,0,0,0,.16.6,1.52,1.52,0,0,0,.51.5,14.41,14.41,0,0,0,1.65.86,6.71,6.71,0,0,1,2.37,1.66A3.21,3.21,0,0,1,138,59.5Z"/>
      <path class="cls-13" d="M140.27,62.92V50.6h2.61V62.92Z"/>
      <path class="cls-14" d="M151.2,62.92l-3-9.67h-.08c.11,2,.16,3.28.16,3.94v5.73H146V50.6h3.56L152.45,60h.05l3.1-9.42h3.55V62.92h-2.43V57.09c0-.28,0-.6,0-1s.05-1.31.11-2.86h-.07l-3.18,9.65Z"/>
      <path class="cls-15" d="M170.77,54.44a3.75,3.75,0,0,1-1.25,3A5.3,5.3,0,0,1,166,58.54h-1.12v4.38h-2.62V50.6h3.94a5.25,5.25,0,0,1,3.41,1A3.51,3.51,0,0,1,170.77,54.44Zm-5.9,2h.86a2.85,2.85,0,0,0,1.8-.47,1.67,1.67,0,0,0,.6-1.39,1.71,1.71,0,0,0-.5-1.35,2.32,2.32,0,0,0-1.57-.44h-1.19Z"/>
      <path class="cls-16" d="M173.09,62.92V50.6h2.62V60.76h5v2.16Z"/>
      <path class="cls-17" d="M182.85,62.92V50.6h2.61V62.92Z"/>
      <path class="cls-18" d="M191.13,62.92h-2.57V50.6h7.06v2.14h-4.49v3.17h4.18v2.14h-4.18Z"/>
      <path class="cls-19" d="M201.87,55.67l2.57-5.07h2.81l-4.08,7.52v4.8h-2.6V58.21l-4.09-7.61h2.83Z"/>
      <path class="cls-20" d="M220.38,62.92h-7.09V50.6h7.09v2.14H215.9v2.7h4.17v2.14H215.9v3.18h4.48Z"/>
      <path class="cls-21" d="M233.89,62.92h-3.32l-5.36-9.32h-.08c.11,1.64.16,2.82.16,3.52v5.8H223V50.6h3.29l5.35,9.23h.06c-.08-1.61-.12-2.74-.12-3.4V50.6h2.35Z"/>
      <path class="cls-22" d="M241.67,56h4.88v6.39a13.07,13.07,0,0,1-2.23.54,15.22,15.22,0,0,1-2.15.16,5.44,5.44,0,0,1-4.26-1.64,6.83,6.83,0,0,1-1.47-4.71,6.19,6.19,0,0,1,1.71-4.65,6.47,6.47,0,0,1,4.73-1.67,9.13,9.13,0,0,1,3.66.76l-.87,2.09a6.22,6.22,0,0,0-2.81-.68,3.45,3.45,0,0,0-2.71,1.14,4.42,4.42,0,0,0-1,3.06,4.87,4.87,0,0,0,.82,3.06,2.84,2.84,0,0,0,2.39,1.06,7.86,7.86,0,0,0,1.66-.17V58.17h-2.33Z"/>
      <path class="cls-23" d="M249.49,62.92V50.6h2.61V62.92Z"/>
      <path class="cls-24" d="M266.13,62.92h-3.32l-5.36-9.32h-.07c.1,1.64.16,2.82.16,3.52v5.8H255.2V50.6h3.3l5.35,9.23h.06c-.09-1.61-.13-2.74-.13-3.4V50.6h2.35Z"/>
      <path class="cls-25" d="M276.33,62.92h-7.1V50.6h7.1v2.14h-4.48v2.7H276v2.14h-4.17v3.18h4.48Z"/>
      <path class="cls-26" d="M286,62.92h-7.1V50.6H286v2.14h-4.49v2.7h4.18v2.14h-4.18v3.18H286Z"/>
      <path class="cls-27" d="M291.18,58.19v4.73h-2.61V50.6h3.59a6.18,6.18,0,0,1,3.72.91,3.65,3.65,0,0,1,.6,4.71,3.92,3.92,0,0,1-1.69,1.33q2.77,4.16,3.62,5.37h-2.9l-2.94-4.73Zm0-2.12H292a3.17,3.17,0,0,0,1.83-.42,1.44,1.44,0,0,0,.59-1.29,1.35,1.35,0,0,0-.6-1.25,3.62,3.62,0,0,0-1.87-.37h-.79Z"/>
      <path class="cls-28" d="M300,62.92V50.6h2.62V62.92Z"/>
      <path class="cls-29" d="M316.61,62.92h-3.32l-5.36-9.32h-.08c.11,1.64.16,2.82.16,3.52v5.8h-2.33V50.6H309l5.36,9.23h.05c-.08-1.61-.12-2.74-.12-3.4V50.6h2.35Z"/>
      <path class="cls-30" d="M324.39,56h4.89v6.39a13.17,13.17,0,0,1-2.24.54,15.07,15.07,0,0,1-2.14.16,5.46,5.46,0,0,1-4.27-1.64,6.83,6.83,0,0,1-1.47-4.71,6.19,6.19,0,0,1,1.71-4.65,6.5,6.5,0,0,1,4.73-1.67,9.06,9.06,0,0,1,3.66.76l-.87,2.09a6.18,6.18,0,0,0-2.8-.68,3.48,3.48,0,0,0-2.72,1.14,4.42,4.42,0,0,0-1,3.06,4.94,4.94,0,0,0,.82,3.06,2.84,2.84,0,0,0,2.39,1.06,7.86,7.86,0,0,0,1.66-.17V58.17h-2.33Z"/>
      <path class="cls-31" d="M194.17,78a3.19,3.19,0,0,1-1.2,2.63,5.21,5.21,0,0,1-3.34,1,7.92,7.92,0,0,1-3.49-.74V78.41a15.88,15.88,0,0,0,2.11.79,6.36,6.36,0,0,0,1.58.22,2.22,2.22,0,0,0,1.32-.33,1.09,1.09,0,0,0,.46-1,1.14,1.14,0,0,0-.2-.65,2.23,2.23,0,0,0-.59-.54,17,17,0,0,0-1.6-.84,7.48,7.48,0,0,1-1.7-1,3.94,3.94,0,0,1-.9-1.13,3.34,3.34,0,0,1-.33-1.52,3.17,3.17,0,0,1,1.1-2.57,4.63,4.63,0,0,1,3.07-.94,7.28,7.28,0,0,1,1.83.23,12.84,12.84,0,0,1,1.82.64l-.84,2a11.36,11.36,0,0,0-1.63-.56,5.08,5.08,0,0,0-1.27-.16,1.71,1.71,0,0,0-1.14.34,1.15,1.15,0,0,0-.39.91,1.08,1.08,0,0,0,.16.6,1.85,1.85,0,0,0,.51.49,13.48,13.48,0,0,0,1.66.87A6.53,6.53,0,0,1,193.53,76,3.25,3.25,0,0,1,194.17,78Z"/>
      <path class="cls-32" d="M207.59,75.23a6.67,6.67,0,0,1-1.52,4.71,6.58,6.58,0,0,1-8.69,0,6.73,6.73,0,0,1-1.52-4.72,6.64,6.64,0,0,1,1.52-4.7,5.7,5.7,0,0,1,4.36-1.62,5.62,5.62,0,0,1,4.35,1.63A6.72,6.72,0,0,1,207.59,75.23Zm-9,0a5.15,5.15,0,0,0,.78,3.11,2.76,2.76,0,0,0,2.35,1q3.12,0,3.12-4.16c0-2.77-1-4.16-3.11-4.16a2.76,2.76,0,0,0-2.35,1.05A5.11,5.11,0,0,0,198.6,75.23Z"/>
      <path class="cls-33" d="M210.15,81.41V69.09h2.61V79.25h5v2.16Z"/>
      <path class="cls-34" d="M229.93,69.09v8a4.7,4.7,0,0,1-.61,2.4A4,4,0,0,1,227.55,81a6.24,6.24,0,0,1-2.73.55,5.17,5.17,0,0,1-3.69-1.22A4.3,4.3,0,0,1,219.81,77V69.09h2.61v7.54a3.16,3.16,0,0,0,.57,2.09,2.36,2.36,0,0,0,1.9.67,2.3,2.3,0,0,0,1.85-.67,3.15,3.15,0,0,0,.58-2.1V69.09Z"/>
      <path class="cls-35" d="M237.7,81.41h-2.62V71.26h-3.34V69.09H241v2.17H237.7Z"/>
      <path class="cls-36" d="M242.94,81.41V69.09h2.61V81.41Z"/>
      <path class="cls-37" d="M259.84,75.23a6.72,6.72,0,0,1-1.52,4.71,6.59,6.59,0,0,1-8.7,0,6.73,6.73,0,0,1-1.51-4.72,6.6,6.6,0,0,1,1.52-4.7A5.69,5.69,0,0,1,254,68.9a5.6,5.6,0,0,1,4.34,1.63A6.67,6.67,0,0,1,259.84,75.23Zm-9,0a5.15,5.15,0,0,0,.78,3.11,2.73,2.73,0,0,0,2.34,1q3.14,0,3.13-4.16T254,71.07a2.76,2.76,0,0,0-2.35,1.05A5.11,5.11,0,0,0,250.85,75.23Z"/>
      <path class="cls-38" d="M273.32,81.41H270l-5.36-9.32h-.07c.1,1.65.16,2.82.16,3.52v5.8h-2.34V69.09h3.3L271,78.32h.06c-.09-1.6-.13-2.73-.13-3.4V69.09h2.35Z"/>
    </g>
    <rect class="cls-39" x="284.74" y="73.33" width="45.26" height="3.57"/>
    <rect class="cls-40" x="130.18" y="73.53" width="45.26" height="3.57"/>
  </g>
</svg>
