<svg id="Layer_1" data-name="Layer 1" xmlns="http://www.w3.org/2000/svg" xmlns:xlink="http://www.w3.org/1999/xlink" viewBox="0 0 272.91 120">
  <defs>
    <style>
      .cls-1 {
        fill: url(#linear-gradient);
      }

      .cls-2 {
        fill: url(#linear-gradient-2);
      }

      .cls-3 {
        fill: #00aeef;
      }

      .cls-4 {
        fill: #414042;
      }

      .cls-5 {
        fill: url(#linear-gradient-3);
      }

      .cls-6 {
        fill: #f1f2f2;
      }

      .cls-7 {
        fill: url(#linear-gradient-4);
      }

      .cls-8 {
        fill: url(#linear-gradient-5);
      }

      .cls-9 {
        fill: url(#linear-gradient-6);
      }

      .cls-10 {
        fill: url(#linear-gradient-7);
      }

      .cls-11 {
        fill: url(#linear-gradient-8);
      }

      .cls-12 {
        fill: url(#linear-gradient-9);
      }

      .cls-13 {
        fill: url(#linear-gradient-10);
      }

      .cls-14 {
        fill: url(#linear-gradient-11);
      }

      .cls-15 {
        fill: url(#linear-gradient-12);
      }
    </style>
    <linearGradient id="linear-gradient" x1="5" y1="77.95" x2="125" y2="77.95" gradientUnits="userSpaceOnUse">
      <stop offset="0" stop-color="#1c75bc"/>
      <stop offset="0.17" stop-color="#1d6baa"/>
      <stop offset="0.73" stop-color="#1f4b71"/>
      <stop offset="1" stop-color="#203f5b"/>
    </linearGradient>
    <linearGradient id="linear-gradient-2" x1="43.87" y1="90.88" x2="122.95" y2="90.88" gradientUnits="userSpaceOnUse">
      <stop offset="0" stop-color="#f1f2f2"/>
      <stop offset="0.28" stop-color="#e7e8e9"/>
      <stop offset="1" stop-color="#d1d3d4"/>
    </linearGradient>
    <linearGradient id="linear-gradient-3" x1="81.8" y1="49.92" x2="52.14" y2="79.44" gradientUnits="userSpaceOnUse">
      <stop offset="0" stop-color="#165f98"/>
      <stop offset="0.63" stop-color="#1b456a"/>
      <stop offset="1" stop-color="#1d3954"/>
    </linearGradient>
    <linearGradient id="linear-gradient-4" x1="30.53" y1="49.66" x2="69.24" y2="85.17" xlink:href="#linear-gradient-3"/>
    <linearGradient id="linear-gradient-5" x1="79.56" y1="13.73" x2="79.85" y2="52.83" xlink:href="#linear-gradient"/>
    <linearGradient id="linear-gradient-6" x1="94.12" y1="21.47" x2="94.12" y2="64.15" xlink:href="#linear-gradient"/>
    <linearGradient id="linear-gradient-7" x1="89.8" y1="19.63" x2="89.71" y2="62.31" xlink:href="#linear-gradient"/>
    <linearGradient id="linear-gradient-8" x1="55.71" y1="2.02" x2="55.9" y2="55.16" xlink:href="#linear-gradient"/>
    <linearGradient id="linear-gradient-9" x1="45.55" y1="27.36" x2="45.94" y2="58.14" xlink:href="#linear-gradient"/>
    <linearGradient id="linear-gradient-10" x1="136.07" y1="60" x2="172.83" y2="60" xlink:href="#linear-gradient-2"/>
    <linearGradient id="linear-gradient-11" x1="186.21" y1="60.02" x2="218.69" y2="60.02" xlink:href="#linear-gradient-2"/>
    <linearGradient id="linear-gradient-12" x1="230.14" y1="60" x2="266.9" y2="60" xlink:href="#linear-gradient-2"/>
  </defs>
  <g>
    <path class="cls-1" d="M29.5,44s-36.48,41,0,54.87c0,0,47,16.2,95.5-48.76,0,0-33.58,58.89-88.62,61.83a37.62,37.62,0,0,1-16.68-2.84C6.49,103.44-9.38,87.58,29.5,44Z"/>
    <path class="cls-2" d="M43.87,115.43S90,110.48,123,66.32C123,66.32,101.59,116.54,43.87,115.43Z"/>
    <polygon class="cls-3" points="96.45 74.01 102.46 74.01 80.97 55.57 60.99 74.01 66.87 74.01 66.8 71.11 81.05 60.27 96.6 70.69 96.45 74.01"/>
    <polygon class="cls-4" points="68.1 71.77 81.19 62.15 95.15 71.48 81.05 63.96 68.1 71.77"/>
    <polygon class="cls-5" points="60.99 65.81 71.06 57.09 80.97 55.57 60.68 74.28 56.82 71.45 60.99 65.81"/>
    <g>
      <path class="cls-6" d="M78.94,72.27h1.74a0,0,0,0,1,0,0v3.48a0,0,0,0,1,0,0H77.2a0,0,0,0,1,0,0V74A1.74,1.74,0,0,1,78.94,72.27Z"/>
      <path class="cls-6" d="M81.27,72.27h3.48a0,0,0,0,1,0,0v3.48a0,0,0,0,1,0,0H83A1.74,1.74,0,0,1,81.27,74V72.27A0,0,0,0,1,81.27,72.27Z" transform="translate(166.02 148.03) rotate(180)"/>
      <rect class="cls-6" x="77.2" y="76.21" width="3.48" height="3.48"/>
      <rect class="cls-6" x="81.27" y="76.21" width="3.48" height="3.48"/>
    </g>
    <polygon class="cls-7" points="33.59 57.74 61.8 66.13 49.94 79.69 33.59 57.74"/>
    <polygon class="cls-3" points="20.5 81.25 15.94 81.25 33.59 57.74 49.07 78.52 33.59 62.15 20.57 77.95 20.5 81.25"/>
    <polygon class="cls-4" points="21.8 78.36 33.59 64.32 47.12 78.36 33.59 65.81 21.8 78.36"/>
    <g>
      <path class="cls-6" d="M32,74h1.34a0,0,0,0,1,0,0v2.68a0,0,0,0,1,0,0H30.69a0,0,0,0,1,0,0V75.32A1.34,1.34,0,0,1,32,74Z"/>
      <path class="cls-6" d="M33.82,74H36.5a0,0,0,0,1,0,0v2.68a0,0,0,0,1,0,0H35.16a1.34,1.34,0,0,1-1.34-1.34V74A0,0,0,0,1,33.82,74Z" transform="translate(70.31 150.63) rotate(180)"/>
      <rect class="cls-6" x="30.69" y="77" width="2.68" height="2.68"/>
      <rect class="cls-6" x="33.82" y="77" width="2.68" height="2.68"/>
    </g>
    <g>
      <polygon class="cls-3" points="29.08 94.43 57.08 71.11 76.4 88.08 70.34 88.03 70.31 84.88 57.37 75.41 29.08 94.43"/>
      <polygon class="cls-4" points="32.18 93.66 57.31 76.83 68.64 85.24 57.35 78.53 32.18 93.66"/>
      <g>
        <path class="cls-6" d="M55.18,85.47h1.74a0,0,0,0,1,0,0V89a0,0,0,0,1,0,0H53.44a0,0,0,0,1,0,0V87.21A1.74,1.74,0,0,1,55.18,85.47Z"/>
        <path class="cls-6" d="M57.51,85.47H61a0,0,0,0,1,0,0V89a0,0,0,0,1,0,0H59.25a1.74,1.74,0,0,1-1.74-1.74V85.47A0,0,0,0,1,57.51,85.47Z" transform="translate(118.5 174.42) rotate(180)"/>
        <rect class="cls-6" x="53.44" y="89.4" width="3.48" height="3.48"/>
        <rect class="cls-6" x="57.51" y="89.4" width="3.48" height="3.48"/>
      </g>
    </g>
    <g>
      <polygon class="cls-8" points="84.11 12.18 84.11 56.41 81.73 54.05 75.32 54.97 75.32 19.51 84.11 12.18"/>
      <polygon class="cls-3" points="85.1 57.27 85.89 57.92 85.94 12.59 85.1 11.96 85.1 57.27"/>
      <polygon class="cls-3" points="86.65 58.05 87.44 58.69 87.49 13.36 86.65 12.73 86.65 58.05"/>
    </g>
    <g>
      <polygon class="cls-9" points="97.17 67.62 91.07 62.48 91.07 22.17 97.17 27.11 97.17 67.62"/>
      <polygon class="cls-10" points="89.36 61.09 90.15 61.66 90.2 22.13 89.36 21.58 89.36 61.09"/>
    </g>
    <g>
      <polygon class="cls-11" points="64.41 4.55 64.11 61.25 62.31 62.85 62.45 36.2 62.46 34.56 51.73 30.03 47.12 33.16 47.12 19.19 58.49 9.61 64.41 4.55"/>
      <polygon class="cls-3" points="66.13 59.28 65.22 59.98 65.22 4.78 66.19 5.28 66.13 59.28"/>
      <polygon class="cls-3" points="67.87 58.32 66.96 59 66.96 5.77 67.93 6.25 67.87 58.32"/>
      <polygon class="cls-3" points="69.61 56.99 68.7 57.64 68.7 6.74 69.67 7.19 69.61 56.99"/>
      <polygon class="cls-3" points="71.35 55.48 70.44 56.09 70.44 7.51 71.41 7.95 71.35 55.48"/>
    </g>
    <g>
      <polygon class="cls-12" points="52.08 61.57 39.79 58.17 39.79 38.53 51.75 31.58 52.08 61.57"/>
      <polygon class="cls-3" points="53.7 61.88 52.96 61.88 52.96 31.38 53.7 31.73 53.7 61.88"/>
      <polygon class="cls-3" points="55.25 62.37 54.51 62.37 54.51 32.15 55.25 32.51 55.25 62.37"/>
      <polygon class="cls-3" points="56.8 62.85 56.06 62.85 56.06 32.89 56.8 33.23 56.8 62.85"/>
      <polygon class="cls-3" points="58.34 63.54 57.61 63.54 57.61 33.66 58.34 34.01 58.34 63.54"/>
      <polygon class="cls-3" points="59.89 63.79 59.16 63.79 59.16 34.56 59.89 34.9 59.89 63.79"/>
      <polygon class="cls-3" points="61.45 63.57 60.62 63.97 60.62 35.57 61.45 35.57 61.45 63.57"/>
    </g>
  </g>
  <g>
    <path class="cls-13" d="M172.83,72.56a14.56,14.56,0,0,1-5.5,12Q161.84,89,152,89a35.82,35.82,0,0,1-16-3.4V74.48a64.63,64.63,0,0,0,9.66,3.59,28.37,28.37,0,0,0,7.23,1,10.3,10.3,0,0,0,6-1.5,5.14,5.14,0,0,0,2.1-4.47,5,5,0,0,0-.92-3,10.39,10.39,0,0,0-2.72-2.48,70.86,70.86,0,0,0-7.31-3.82,34.83,34.83,0,0,1-7.76-4.67A17.4,17.4,0,0,1,138.27,54a14.83,14.83,0,0,1-1.55-6.94q0-7.48,5.08-11.77t14-4.28a33.31,33.31,0,0,1,8.39,1A58.58,58.58,0,0,1,172.56,35l-3.86,9.3a57.58,57.58,0,0,0-7.46-2.58,24,24,0,0,0-5.81-.74,7.67,7.67,0,0,0-5.21,1.59,5.2,5.2,0,0,0-1.81,4.12,5.08,5.08,0,0,0,.73,2.76,8.1,8.1,0,0,0,2.34,2.28,71.19,71.19,0,0,0,7.58,3.95q7.91,3.78,10.84,7.58A14.82,14.82,0,0,1,172.83,72.56Z"/>
    <path class="cls-14" d="M218.69,88.22H186.21V31.82h32.48v9.8H198.17V54h19.09v9.8H198.17V78.34h20.52Z"/>
    <path class="cls-15" d="M266.9,72.56a14.58,14.58,0,0,1-5.49,12Q255.91,89,246.11,89a35.85,35.85,0,0,1-16-3.4V74.48a65.09,65.09,0,0,0,9.67,3.59,28.25,28.25,0,0,0,7.23,1,10.34,10.34,0,0,0,6-1.5,5.14,5.14,0,0,0,2.1-4.47,5,5,0,0,0-.93-3,10.23,10.23,0,0,0-2.72-2.48,68.7,68.7,0,0,0-7.31-3.82,34.73,34.73,0,0,1-7.75-4.67A17.59,17.59,0,0,1,232.34,54a14.83,14.83,0,0,1-1.54-6.94q0-7.48,5.07-11.77t14-4.28a33.25,33.25,0,0,1,8.39,1A57.73,57.73,0,0,1,266.63,35l-3.85,9.3a57.13,57.13,0,0,0-7.47-2.58,23.9,23.9,0,0,0-5.8-.74,7.66,7.66,0,0,0-5.21,1.59,5.2,5.2,0,0,0-1.81,4.12,5.08,5.08,0,0,0,.73,2.76,8.18,8.18,0,0,0,2.33,2.28,73.39,73.39,0,0,0,7.58,3.95q7.92,3.78,10.84,7.58A14.76,14.76,0,0,1,266.9,72.56Z"/>
  </g>
</svg>
