<?xml version="1.0" encoding="utf-8"?>
<!-- Generator: Adobe Illustrator 24.2.0, SVG Export Plug-In . SVG Version: 6.00 Build 0)  -->
<svg version="1.1" id="Layer_1" xmlns="http://www.w3.org/2000/svg" xmlns:xlink="http://www.w3.org/1999/xlink" x="0px" y="0px"
	 viewBox="0 0 272.9 120" style="enable-background:new 0 0 272.9 120;" xml:space="preserve">
<style type="text/css">
	.st0{fill:url(#SVGID_1_);}
	.st1{fill:url(#SVGID_2_);}
	.st2{fill:#00AEEF;}
	.st3{fill:#414042;}
	.st4{fill:url(#SVGID_3_);}
	.st5{fill:url(#SVGID_4_);}
	.st6{fill:url(#SVGID_5_);}
	.st7{fill:url(#SVGID_6_);}
	.st8{fill:url(#SVGID_7_);}
	.st9{fill:url(#SVGID_8_);}
	.st10{fill:url(#SVGID_9_);}
	.st11{fill:url(#SVGID_10_);}
	.st12{fill:url(#SVGID_11_);}
	.st13{fill:url(#SVGID_12_);}
</style>
<g>
	
		<linearGradient id="SVGID_1_" gradientUnits="userSpaceOnUse" x1="5.0013" y1="43.9982" x2="125" y2="43.9982" gradientTransform="matrix(1 0 0 -1 0 122)">
		<stop  offset="0" style="stop-color:#1C75BC"/>
		<stop  offset="0.17" style="stop-color:#1D6BAA"/>
		<stop  offset="0.73" style="stop-color:#1F4B71"/>
		<stop  offset="1" style="stop-color:#203F5B"/>
	</linearGradient>
	<path class="st0" d="M29.5,44c0,0-36.5,41,0,54.9c0,0,47,16.2,95.5-48.8c0,0-33.6,58.9-88.6,61.8c-5.7,0.3-11.4-0.6-16.7-2.8
		C6.5,103.4-9.4,87.6,29.5,44z"/>
	
		<linearGradient id="SVGID_2_" gradientUnits="userSpaceOnUse" x1="43.87" y1="31.1159" x2="123" y2="31.1159" gradientTransform="matrix(1 0 0 -1 0 122)">
		<stop  offset="0" style="stop-color:#F1F2F2"/>
		<stop  offset="0.28" style="stop-color:#E7E8E9"/>
		<stop  offset="1" style="stop-color:#D1D3D4"/>
	</linearGradient>
	<path class="st1" d="M43.9,115.4c0,0,46.1-4.9,79.1-49.1C123,66.3,101.6,116.5,43.9,115.4z"/>
	<polygon class="st2" points="96.4,74 102.5,74 81,55.6 61,74 66.9,74 66.8,71.1 81.1,60.3 96.6,70.7 	"/>
	<polygon class="st3" points="68.1,71.8 81.2,62.2 95.2,71.5 81.1,64 	"/>
	
		<linearGradient id="SVGID_3_" gradientUnits="userSpaceOnUse" x1="81.8005" y1="72.0795" x2="52.1405" y2="42.5595" gradientTransform="matrix(1 0 0 -1 0 122)">
		<stop  offset="0" style="stop-color:#165F98"/>
		<stop  offset="0.63" style="stop-color:#1B456A"/>
		<stop  offset="1" style="stop-color:#1D3954"/>
	</linearGradient>
	<polygon class="st4" points="61,65.8 71.1,57.1 81,55.6 60.7,74.3 56.8,71.4 	"/>
	<g>
		<path d="M78.9,72.3h1.7l0,0v3.5l0,0h-3.5l0,0V74C77.2,73,78,72.3,78.9,72.3z"/>
		<path d="M84.8,75.8h-3.5l0,0v-3.5l0,0H83c1,0,1.7,0.8,1.7,1.7c0,0,0,0,0,0V75.8L84.8,75.8z"/>
		<rect x="77.2" y="76.2" width="3.5" height="3.5"/>
		<rect x="81.3" y="76.2" width="3.5" height="3.5"/>
	</g>
	
		<linearGradient id="SVGID_4_" gradientUnits="userSpaceOnUse" x1="30.5276" y1="72.3374" x2="69.2376" y2="36.8274" gradientTransform="matrix(1 0 0 -1 0 122)">
		<stop  offset="0" style="stop-color:#165F98"/>
		<stop  offset="0.63" style="stop-color:#1B456A"/>
		<stop  offset="1" style="stop-color:#1D3954"/>
	</linearGradient>
	<polygon class="st5" points="33.6,57.7 61.8,66.1 49.9,79.7 	"/>
	<polygon class="st2" points="20.5,81.3 15.9,81.3 33.6,57.7 49.1,78.5 33.6,62.2 20.6,77.9 	"/>
	<polygon class="st3" points="21.8,78.4 33.6,64.3 47.1,78.4 33.6,65.8 	"/>
	<g>
		<path d="M32,74h1.3l0,0v2.7l0,0h-2.6l0,0v-1.4C30.7,74.6,31.3,74,32,74z"/>
		<path d="M36.5,76.6h-2.7l0,0V74l0,0h1.3c0.7,0,1.3,0.6,1.3,1.3V76.6L36.5,76.6z"/>
		<rect x="30.7" y="77" width="2.7" height="2.7"/>
		<rect x="33.8" y="77" width="2.7" height="2.7"/>
	</g>
	<g>
		<polygon class="st2" points="29.1,94.4 57.1,71.1 76.4,88.1 70.3,88 70.3,84.9 57.4,75.4 		"/>
		<polygon class="st3" points="32.2,93.7 57.3,76.8 68.6,85.2 57.3,78.5 		"/>
		<g>
			<path d="M55.2,85.5h1.7l0,0V89l0,0h-3.5l0,0v-1.8C53.4,86.2,54.2,85.5,55.2,85.5z"/>
			<path d="M61,88.9h-3.5l0,0v-3.5l0,0h1.8c1,0,1.7,0.8,1.7,1.7V88.9L61,88.9z"/>
			<rect x="53.4" y="89.4" width="3.5" height="3.5"/>
			<rect x="57.5" y="89.4" width="3.5" height="3.5"/>
		</g>
	</g>
	<g>
		
			<linearGradient id="SVGID_5_" gradientUnits="userSpaceOnUse" x1="79.5678" y1="108.2701" x2="79.8578" y2="69.1701" gradientTransform="matrix(1 0 0 -1 0 122)">
			<stop  offset="0" style="stop-color:#1C75BC"/>
			<stop  offset="0.17" style="stop-color:#1D6BAA"/>
			<stop  offset="0.73" style="stop-color:#1F4B71"/>
			<stop  offset="1" style="stop-color:#203F5B"/>
		</linearGradient>
		<polygon class="st6" points="84.1,12.2 84.1,56.4 81.7,54 75.3,55 75.3,19.5 		"/>
		<polygon class="st2" points="85.1,57.3 85.9,57.9 85.9,12.6 85.1,12 		"/>
		<polygon class="st2" points="86.7,58 87.4,58.7 87.5,13.4 86.7,12.7 		"/>
	</g>
	<g>
		
			<linearGradient id="SVGID_6_" gradientUnits="userSpaceOnUse" x1="94.12" y1="100.53" x2="94.12" y2="57.85" gradientTransform="matrix(1 0 0 -1 0 122)">
			<stop  offset="0" style="stop-color:#1C75BC"/>
			<stop  offset="0.17" style="stop-color:#1D6BAA"/>
			<stop  offset="0.73" style="stop-color:#1F4B71"/>
			<stop  offset="1" style="stop-color:#203F5B"/>
		</linearGradient>
		<polygon class="st7" points="97.2,67.6 91.1,62.5 91.1,22.2 97.2,27.1 		"/>
		
			<linearGradient id="SVGID_7_" gradientUnits="userSpaceOnUse" x1="89.8014" y1="102.37" x2="89.7114" y2="59.69" gradientTransform="matrix(1 0 0 -1 0 122)">
			<stop  offset="0" style="stop-color:#1C75BC"/>
			<stop  offset="0.17" style="stop-color:#1D6BAA"/>
			<stop  offset="0.73" style="stop-color:#1F4B71"/>
			<stop  offset="1" style="stop-color:#203F5B"/>
		</linearGradient>
		<polygon class="st8" points="89.4,61.1 90.2,61.7 90.2,22.1 89.4,21.6 		"/>
	</g>
	<g>
		
			<linearGradient id="SVGID_8_" gradientUnits="userSpaceOnUse" x1="55.7048" y1="119.98" x2="55.8948" y2="66.84" gradientTransform="matrix(1 0 0 -1 0 122)">
			<stop  offset="0" style="stop-color:#1C75BC"/>
			<stop  offset="0.17" style="stop-color:#1D6BAA"/>
			<stop  offset="0.73" style="stop-color:#1F4B71"/>
			<stop  offset="1" style="stop-color:#203F5B"/>
		</linearGradient>
		<polygon class="st9" points="64.4,4.6 64.1,61.3 62.3,62.8 62.5,36.2 62.5,34.6 51.7,30 47.1,33.2 47.1,19.2 58.5,9.6 		"/>
		<polygon class="st2" points="66.1,59.3 65.2,60 65.2,4.8 66.2,5.3 		"/>
		<polygon class="st2" points="67.9,58.3 67,59 67,5.8 67.9,6.3 		"/>
		<polygon class="st2" points="69.6,57 68.7,57.6 68.7,6.7 69.7,7.2 		"/>
		<polygon class="st2" points="71.3,55.5 70.4,56.1 70.4,7.5 71.4,7.9 		"/>
	</g>
	<g>
		
			<linearGradient id="SVGID_9_" gradientUnits="userSpaceOnUse" x1="45.5481" y1="94.64" x2="45.9381" y2="63.86" gradientTransform="matrix(1 0 0 -1 0 122)">
			<stop  offset="0" style="stop-color:#1C75BC"/>
			<stop  offset="0.17" style="stop-color:#1D6BAA"/>
			<stop  offset="0.73" style="stop-color:#1F4B71"/>
			<stop  offset="1" style="stop-color:#203F5B"/>
		</linearGradient>
		<polygon class="st10" points="52.1,61.6 39.8,58.2 39.8,38.5 51.8,31.6 		"/>
		<polygon class="st2" points="53.7,61.9 53,61.9 53,31.4 53.7,31.7 		"/>
		<polygon class="st2" points="55.3,62.4 54.5,62.4 54.5,32.2 55.3,32.5 		"/>
		<polygon class="st2" points="56.8,62.8 56.1,62.8 56.1,32.9 56.8,33.2 		"/>
		<polygon class="st2" points="58.3,63.5 57.6,63.5 57.6,33.7 58.3,34 		"/>
		<polygon class="st2" points="59.9,63.8 59.2,63.8 59.2,34.6 59.9,34.9 		"/>
		<polygon class="st2" points="61.5,63.6 60.6,64 60.6,35.6 61.5,35.6 		"/>
	</g>
</g>
<g>
	
		<linearGradient id="SVGID_10_" gradientUnits="userSpaceOnUse" x1="271.4957" y1="-7.5788" x2="118.2418" y2="82.9999" gradientTransform="matrix(1 0 0 -1 0 122)">
		<stop  offset="0" style="stop-color:#1C75BC"/>
		<stop  offset="0.1691" style="stop-color:#1D6BAA"/>
		<stop  offset="0.7297" style="stop-color:#1F4B71"/>
		<stop  offset="1" style="stop-color:#203F5B"/>
	</linearGradient>
	<path class="st11" d="M172.8,72.6c0.2,4.6-1.9,9.1-5.5,12c-3.7,3-8.8,4.4-15.3,4.4c-5.5,0.1-11-1-16-3.4V74.5
		c3.1,1.5,6.3,2.7,9.7,3.6c2.4,0.6,4.8,1,7.2,1c2.1,0.1,4.2-0.4,6-1.5c1.4-1,2.2-2.7,2.1-4.5c0-1.1-0.3-2.1-0.9-3
		c-0.8-1-1.7-1.8-2.7-2.5c-2.4-1.4-4.8-2.7-7.3-3.8c-2.8-1.2-5.4-2.8-7.8-4.7c-1.6-1.4-3-3.2-4-5.1c-1.1-2.2-1.6-4.5-1.6-6.9
		c0-5,1.7-8.9,5.1-11.8c3.4-2.9,8.1-4.3,14-4.3c2.8,0,5.6,0.3,8.4,1c2.9,0.8,5.7,1.8,8.4,3l-3.9,9.3c-2.4-1-4.9-1.9-7.5-2.6
		c-1.9-0.5-3.9-0.7-5.8-0.7c-1.9-0.1-3.7,0.4-5.2,1.6c-1.2,1-1.9,2.5-1.8,4.1c0,1,0.2,1.9,0.7,2.8c0.6,0.9,1.4,1.7,2.3,2.3
		c2.4,1.5,5,2.8,7.6,4c5.3,2.5,8.9,5,10.8,7.6C171.9,65.9,172.9,69.2,172.8,72.6z"/>
	
		<linearGradient id="SVGID_11_" gradientUnits="userSpaceOnUse" x1="284.089" y1="13.7284" x2="130.8351" y2="104.307" gradientTransform="matrix(1 0 0 -1 0 122)">
		<stop  offset="0" style="stop-color:#1C75BC"/>
		<stop  offset="0.1691" style="stop-color:#1D6BAA"/>
		<stop  offset="0.7297" style="stop-color:#1F4B71"/>
		<stop  offset="1" style="stop-color:#203F5B"/>
	</linearGradient>
	<path class="st12" d="M218.7,88.2h-32.5V31.8h32.5v9.8h-20.5V54h19.1v9.8h-19.1v14.5h20.5V88.2z"/>
	
		<linearGradient id="SVGID_12_" gradientUnits="userSpaceOnUse" x1="295.8545" y1="33.6349" x2="142.6006" y2="124.2136" gradientTransform="matrix(1 0 0 -1 0 122)">
		<stop  offset="0" style="stop-color:#1C75BC"/>
		<stop  offset="0.1691" style="stop-color:#1D6BAA"/>
		<stop  offset="0.7297" style="stop-color:#1F4B71"/>
		<stop  offset="1" style="stop-color:#203F5B"/>
	</linearGradient>
	<path class="st13" d="M266.9,72.6c0.2,4.6-1.9,9.1-5.5,12c-3.7,3-8.8,4.4-15.3,4.4c-5.5,0.1-11-1-16-3.4V74.5
		c3.1,1.5,6.4,2.7,9.7,3.6c2.4,0.6,4.8,1,7.2,1c2.1,0.1,4.2-0.4,6-1.5c1.4-1,2.2-2.7,2.1-4.5c0-1.1-0.3-2.1-0.9-3
		c-0.7-1-1.7-1.8-2.7-2.5c-2.4-1.4-4.8-2.7-7.3-3.8c-2.8-1.2-5.4-2.8-7.8-4.7c-1.7-1.4-3-3.2-4.1-5.1c-1.1-2.2-1.6-4.5-1.5-6.9
		c0-5,1.7-8.9,5.1-11.8s8-4.3,14-4.3c2.8,0,5.6,0.3,8.4,1c2.9,0.8,5.7,1.8,8.4,3l-3.9,9.3c-2.4-1-4.9-1.9-7.5-2.6
		c-1.9-0.5-3.8-0.7-5.8-0.7c-1.9-0.1-3.7,0.4-5.2,1.6c-1.2,1-1.9,2.5-1.8,4.1c0,1,0.2,1.9,0.7,2.8c0.6,0.9,1.4,1.7,2.3,2.3
		c2.4,1.5,5,2.8,7.6,4c5.3,2.5,8.9,5,10.8,7.6C266,65.9,267,69.2,266.9,72.6z"/>
</g>
</svg>
